<?xml version="1.0" standalone="no"?>
<!DOCTYPE svg PUBLIC "-//W3C//DTD SVG 20010904//EN"
 "http://www.w3.org/TR/2001/REC-SVG-20010904/DTD/svg10.dtd">
<svg version="1.0" xmlns="http://www.w3.org/2000/svg"
 width="826.000000pt" height="472.000000pt" viewBox="0 0 826.000000 472.000000"
 preserveAspectRatio="xMidYMid meet" >
<metadata>
Created by potrace 1.16, written by Peter Selinger 2001-2019
</metadata>
<g transform="translate(0.000000,472.000000) scale(0.100000,-0.100000)"
fill="#000000" stroke="none">

<path d="M833 4165 c-10 -8 -27 -15 -37 -15 -11 0 -35 -10 -53 -22 -27 -19
-33 -29 -33 -61 0 -56 -14 -77 -50 -73 -42 5 -58 -18 -70 -100 -18 -128 -22
-143 -41 -160 -11 -9 -19 -26 -19 -37 0 -32 -31 -75 -50 -70 -10 3 -31 -2 -47
-10 -27 -15 -30 -21 -41 -105 -15 -108 -15 -156 -2 -203 12 -42 50 -81 84 -84
13 -2 33 -6 44 -9 12 -4 29 -3 39 3 10 5 39 15 65 21 26 7 53 19 59 26 6 8 22
14 35 14 12 0 26 5 29 11 5 7 54 8 148 4 78 -3 296 -8 484 -10 189 -2 348 -7
354 -11 8 -4 7 -9 -2 -15 -18 -11 36 -10 71 1 l25 8 -28 1 c-18 1 -26 5 -21
12 3 6 16 8 28 5 30 -8 101 5 85 15 -18 10 -5 15 86 28 67 10 93 12 279 27 44
3 90 10 104 15 14 5 53 9 87 8 34 -1 66 1 71 4 5 2 70 8 144 11 74 4 223 11
330 16 107 5 202 9 210 8 8 -2 42 1 75 6 55 8 58 9 30 17 -18 5 -33 5 -39 -1
-13 -13 -69 -13 -82 0 -16 16 -542 0 -559 -17 -15 -14 -84 -16 -125 -3 -23 7
-23 8 10 11 19 1 44 3 55 3 11 1 25 5 32 9 7 4 49 9 95 12 46 2 148 9 228 14
80 6 183 13 230 16 47 4 103 8 125 10 22 2 45 0 50 -5 7 -6 24 -6 41 -1 16 5
23 10 17 10 -7 1 -13 6 -13 11 0 6 12 9 26 8 15 -2 29 2 31 8 5 15 -75 26 -98
13 -11 -6 -20 -5 -24 1 -3 5 -30 10 -58 11 -29 0 -61 4 -71 8 -33 13 5 21 76
17 40 -3 56 -1 43 4 -13 6 -15 9 -5 9 12 1 12 3 2 10 -7 4 -32 4 -55 0 -83
-16 -177 -6 -154 17 3 4 60 8 124 9 65 2 150 6 188 11 67 8 68 9 30 15 -36 5
-34 6 20 7 33 0 55 -2 48 -4 -7 -3 -10 -11 -7 -18 3 -7 -2 -19 -11 -26 -22
-19 -18 -28 10 -22 15 2 25 11 25 22 0 38 27 45 179 46 204 3 206 3 198 10 -6
6 -45 9 -179 12 -53 2 -68 5 -68 17 0 9 10 15 26 15 14 0 24 5 22 11 -2 7 -35
13 -76 15 -45 2 -70 -1 -67 -6 4 -6 15 -10 27 -10 14 0 18 -5 14 -16 -3 -9 -6
-16 -6 -17 0 -1 -48 1 -107 5 -63 4 -132 3 -166 -3 -59 -10 -102 -5 -92 12 4
5 16 9 28 9 18 0 19 2 7 10 -9 6 -11 10 -3 10 7 0 10 6 7 14 -3 8 4 16 18 20
21 6 19 8 -17 21 -22 8 -44 21 -50 29 -6 8 -22 16 -35 19 -39 7 67 6 150 -1
41 -4 91 -5 110 -1 l35 5 -45 8 c-25 5 -48 13 -51 19 -4 5 -30 9 -58 9 -48 -2
-50 -1 -39 18 8 12 24 20 40 20 30 0 37 14 12 24 -9 3 -40 6 -69 6 -63 0 -85
7 -85 26 0 8 -4 14 -9 14 -5 0 -18 3 -28 7 -15 6 -16 5 -5 -9 25 -31 -27 -29
-58 2 -3 3 -21 13 -42 24 -33 17 -55 18 -270 12 -128 -3 -393 -8 -588 -11
-195 -3 -538 -8 -761 -11 l-407 -6 -11 35 c-17 51 -63 110 -104 135 -31 18
-38 19 -54 7z"/>
<path d="M5937 4080 c-5 -18 -14 -20 -101 -20 -59 0 -104 5 -117 13 -17 10
-23 10 -26 0 -4 -10 -55 -13 -211 -13 -219 0 -480 -17 -497 -32 -6 -5 56 -7
155 -4 174 5 173 5 -95 -23 l-80 -8 125 -2 c69 0 245 4 391 9 278 11 368 4
251 -19 -77 -15 -401 -43 -413 -35 -5 3 -24 1 -42 -5 -18 -6 -82 -13 -143 -16
-60 -3 -172 -9 -249 -15 -77 -6 -169 -10 -205 -10 -79 2 -173 -19 -220 -48
-39 -25 -29 -30 16 -8 18 9 57 13 106 12 42 -1 74 2 72 6 -3 5 -1 8 5 8 5 0
11 -5 13 -12 4 -10 13 -10 44 0 65 19 152 26 168 13 10 -9 31 -9 85 0 54 9 75
9 83 1 9 -9 83 -12 249 -12 148 0 240 -4 244 -10 4 -6 -16 -10 -54 -10 -33 0
-62 -4 -65 -9 -3 -4 -25 -5 -48 -1 -30 6 -51 4 -70 -6 -20 -10 -43 -13 -79 -8
-35 5 -58 3 -76 -7 -21 -11 -27 -11 -30 -1 -3 6 -11 12 -19 12 -8 0 -13 -6
-11 -12 1 -9 -9 -12 -32 -10 -18 1 -39 -2 -46 -8 -8 -7 -70 -12 -149 -13 -111
-2 -133 -4 -120 -14 14 -10 1 -11 -66 -6 -67 5 -82 4 -78 -7 3 -9 22 -15 49
-17 24 -1 61 -5 82 -8 22 -3 36 -2 33 4 -9 15 103 25 120 10 18 -15 98 -16
116 -2 18 15 250 20 588 12 80 -2 83 -2 55 -15 -34 -15 -102 -18 -107 -5 -2 5
-24 5 -53 -1 -27 -6 -88 -13 -135 -16 -68 -4 -78 -7 -50 -12 l35 -7 -38 -2
c-21 0 -45 -8 -54 -16 -8 -9 -23 -13 -33 -10 -9 3 -25 2 -35 -2 -18 -6 -18 -7
1 -14 19 -7 19 -7 0 -15 -13 -5 -23 -2 -31 9 -7 9 -26 20 -43 23 -18 4 -30 10
-27 14 3 4 -34 7 -81 6 -56 -2 -88 -7 -94 -15 -5 -9 -34 -13 -95 -12 -48 1
-93 -3 -99 -8 -6 -4 -34 -11 -63 -14 -54 -6 -107 -27 -86 -34 6 -2 29 0 50 6
49 14 146 14 138 1 -3 -5 1 -10 9 -10 9 0 16 -4 16 -10 0 -5 -4 -10 -10 -10
-5 0 -10 -4 -10 -10 0 -16 37 -12 44 5 4 12 17 14 63 9 92 -9 103 -12 103 -34
0 -11 -4 -20 -10 -20 -5 0 -10 -4 -10 -10 0 -5 9 -10 21 -10 18 0 20 4 14 30
-6 29 -6 30 32 29 21 0 56 -6 78 -14 36 -12 37 -13 12 -14 -36 -1 -27 -16 15
-25 40 -8 28 -19 -42 -35 -30 -8 -62 -19 -70 -26 -9 -8 -65 -15 -140 -19 -69
-4 -129 -11 -135 -16 -5 -4 -29 -11 -52 -15 -23 -3 -47 -13 -54 -21 -10 -13
-6 -14 30 -8 47 8 61 -2 61 -44 0 -39 34 -23 40 18 5 32 6 33 17 15 12 -20 12
-19 13 3 0 14 -6 22 -17 22 -15 0 -16 2 -3 10 23 15 37 12 43 -10 4 -17 13
-20 59 -20 38 0 49 3 38 10 -16 10 -13 12 35 13 16 0 17 1 3 4 -10 3 -18 9
-18 15 0 6 19 8 53 3 28 -3 150 -9 269 -13 119 -4 220 -10 224 -14 4 -5 -5 -9
-19 -9 -15 -1 -39 -3 -54 -5 -16 -2 -84 -7 -153 -11 -92 -6 -124 -11 -123 -20
2 -7 -4 -13 -12 -13 -8 0 -14 5 -12 12 1 6 -7 13 -18 15 -11 2 -29 9 -40 14
-13 6 -30 7 -45 1 -23 -9 -23 -9 10 -15 18 -4 30 -10 27 -13 -4 -4 -34 -1 -68
5 -33 7 -64 10 -67 7 -3 -3 4 -6 16 -6 12 0 29 -8 39 -19 14 -14 39 -20 107
-25 49 -3 101 -9 115 -12 20 -4 23 -3 11 5 -12 9 -9 11 15 12 45 3 49 4 65 14
8 5 116 10 240 11 126 1 214 -1 200 -6 -14 -4 -52 -9 -85 -11 l-60 -2 50 -6
c77 -9 40 -20 -96 -27 -68 -4 -129 -11 -136 -16 -6 -5 -38 -9 -70 -8 -32 1
-76 -3 -98 -9 -37 -9 -35 -10 19 -5 40 4 56 2 52 -5 -4 -6 0 -11 9 -11 11 0
15 -5 12 -14 -7 -18 23 -26 98 -25 43 1 52 3 31 8 -16 3 -31 12 -34 19 -3 9
20 12 90 14 117 2 207 8 341 22 46 5 67 4 67 -3 0 -12 32 -15 43 -5 10 10 216
13 222 4 9 -15 -129 -26 -445 -36 -195 -6 -269 -14 -128 -14 82 0 188 -18 188
-31 0 -11 45 -11 80 -2 25 7 25 7 -5 13 -20 4 0 9 65 14 68 6 95 5 98 -3 3 -9
8 -9 17 -1 20 16 125 26 125 11 0 -6 15 -11 34 -11 19 0 37 -4 40 -9 3 -5 -38
-11 -92 -13 -53 -2 -106 -9 -117 -16 -16 -10 6 -12 120 -10 77 1 165 -2 195
-6 51 -9 54 -8 41 7 -9 12 -31 17 -75 19 l-61 1 50 7 c47 6 48 7 21 14 -25 8
-27 10 -11 19 13 7 27 5 49 -6 17 -9 46 -18 65 -19 19 -2 36 -9 39 -16 2 -7
-2 -10 -12 -6 -9 3 -16 2 -16 -4 0 -14 167 -4 234 15 12 3 16 1 12 -6 -5 -7 2
-11 18 -11 14 0 26 5 26 10 0 6 9 10 19 10 11 0 23 5 27 11 4 7 -8 10 -37 8
-24 -1 -55 3 -69 11 -24 13 -24 13 -3 21 12 4 39 9 60 11 21 2 44 7 50 11 6 4
19 4 29 0 12 -4 15 -3 10 5 -7 12 49 14 364 14 l105 -1 30 42 c17 23 33 50 37
60 7 16 19 19 103 21 21 1 31 7 33 20 3 15 1 17 -14 10 -11 -5 -63 -9 -117
-10 -53 0 -100 -4 -104 -7 -11 -12 -108 -8 -121 5 -9 9 -15 9 -24 0 -19 -19
-38 -14 -38 9 0 19 5 20 77 18 51 -1 78 2 81 9 2 8 32 12 80 13 117 1 132 14
27 23 -50 3 -130 11 -179 18 -81 10 -87 12 -65 24 13 7 32 11 42 8 10 -3 24
-1 32 6 7 6 19 10 27 9 26 -3 39 1 33 11 -4 6 36 10 112 10 131 1 326 10 332
16 2 2 -58 4 -135 5 -76 1 -128 4 -114 8 35 10 -83 24 -128 15 -19 -4 -38 -2
-46 5 -9 8 -16 8 -20 2 -7 -11 -78 -12 -96 -1 -17 11 12 25 68 34 31 5 41 3
36 -5 -4 -8 0 -9 16 -4 13 4 25 3 29 -4 5 -8 13 -7 27 3 10 8 17 17 14 19 -5
5 -120 19 -155 18 -18 0 -18 1 -3 10 10 5 44 9 75 7 32 -1 93 -1 137 0 68 2
77 4 66 17 -8 9 -29 15 -56 15 -23 0 -45 4 -48 9 -3 5 -15 7 -25 4 -10 -3 -22
1 -26 7 -6 9 21 11 106 9 63 -1 121 1 129 4 8 3 31 10 50 16 19 5 27 10 17 10
-10 1 -15 6 -12 11 3 6 1 10 -4 10 -6 0 -11 9 -11 21 0 15 -4 19 -16 15 -9 -3
-17 -6 -20 -6 -2 0 -1 -7 2 -15 4 -8 1 -15 -5 -15 -6 0 -11 3 -11 8 0 4 -4 13
-9 21 -7 10 -13 11 -31 1 -18 -10 -24 -9 -31 1 -15 24 -10 29 34 31 36 1 38 2
10 5 -18 2 -33 8 -33 14 0 5 -15 9 -32 10 -32 0 -32 0 -8 10 14 6 41 8 60 4
23 -4 30 -3 21 3 -11 8 -11 10 0 15 10 4 9 6 -3 6 -9 1 -29 6 -45 13 l-28 11
30 7 c17 4 47 8 68 9 44 1 51 21 7 21 -35 0 -41 19 -7 21 12 1 2 5 -23 11 -25
5 -62 7 -82 4 -21 -2 -38 0 -38 5 0 5 -17 9 -39 9 -21 0 -66 3 -100 6 -60 7
-78 18 -43 27 9 3 -8 5 -38 6 -30 0 -69 5 -86 10 -16 5 -93 6 -171 2 -77 -3
-162 -3 -189 1 -27 4 -53 3 -59 -1 -5 -5 -125 -12 -265 -17 -365 -12 -365 -12
-387 9 -25 22 -29 21 -36 -3z"/>
<path d="M591 3036 c-1 -15 -4 -16 -15 -7 -8 7 -17 8 -20 3 -3 -5 -16 -9 -29
-9 -13 0 -35 -8 -49 -17 -22 -14 -27 -28 -37 -109 -17 -130 -20 -139 -44 -165
-14 -15 -26 -48 -34 -90 -27 -158 -5 -495 36 -548 11 -14 25 -51 32 -82 15
-75 57 -117 126 -125 26 -3 89 -13 138 -22 156 -29 483 -43 850 -39 187 2 358
6 380 8 91 9 141 19 155 31 8 6 24 15 34 19 15 5 17 9 8 18 -9 9 -17 7 -34 -9
-34 -31 -66 -38 -88 -18 -22 20 -62 12 -53 -11 4 -11 -5 -14 -43 -13 -40 1
-44 3 -24 9 17 5 -1 8 -55 8 -57 -1 -70 -3 -45 -7 48 -10 -75 -19 -332 -25
-164 -4 -198 -2 -198 9 0 10 -9 12 -34 8 -25 -4 -35 -1 -39 11 -6 14 7 16 103
16 83 0 109 -3 107 -12 -1 -9 12 -14 38 -15 22 0 30 1 18 4 -13 2 -23 9 -23
14 0 12 157 12 165 -1 8 -13 85 -13 85 -1 0 5 35 12 78 16 42 3 118 11 167 17
86 11 115 14 170 17 14 0 25 6 25 11 0 14 -76 12 -184 -5 -96 -16 -171 -16
-194 -1 -7 4 -19 2 -28 -5 -17 -14 -33 -4 -17 12 5 5 64 12 129 14 123 5 305
22 338 32 12 3 16 1 12 -6 -10 -15 4 -14 37 4 21 11 34 11 58 3 24 -8 38 -7
69 7 22 10 56 19 77 20 49 3 66 11 82 37 11 17 11 22 -1 29 -10 7 -10 9 3 9 9
0 26 9 39 20 20 17 21 21 7 35 -10 9 -18 11 -22 5 -7 -12 -185 -14 -185 -1 0
4 -15 12 -32 18 -28 8 -13 11 90 17 67 4 122 12 122 17 0 5 7 5 18 0 9 -6 34
-13 55 -16 20 -3 37 -9 37 -13 0 -5 16 -6 36 -4 l36 4 -33 17 -34 16 45 6 c29
4 35 7 17 7 -16 1 -25 6 -22 12 4 6 33 8 74 4 45 -4 74 -3 87 5 18 11 17 11
-4 6 -14 -4 -22 -2 -22 6 0 9 21 10 83 6 46 -3 89 -2 97 3 13 8 13 10 0 10 -8
0 -73 6 -145 12 -71 6 -146 10 -165 9 -61 -2 -120 9 -120 24 0 20 20 29 33 16
6 -6 15 -11 19 -11 14 0 8 22 -9 37 -17 13 -16 14 5 8 13 -4 29 -1 37 5 19 16
65 4 65 -15 0 -8 4 -15 10 -15 5 0 7 7 4 15 -7 17 -11 17 376 19 124 1 263 3
310 5 l85 4 -60 7 -60 7 55 1 c37 2 50 5 41 11 -12 8 -12 12 -2 25 19 22 86
29 194 19 52 -5 93 -5 91 -1 -3 4 19 8 48 9 29 0 62 4 73 9 l20 9 -20 1 c-11
1 -47 4 -80 6 -33 3 -96 6 -139 7 -49 1 -81 7 -83 14 -7 19 27 23 222 26 l189
2 31 28 30 28 -27 -6 c-19 -5 -32 -2 -43 8 -20 20 -19 27 3 27 10 0 23 5 29
11 8 8 16 7 30 -1 16 -10 25 -9 49 3 27 15 27 16 7 17 -24 0 -32 19 -10 22 6
1 -19 5 -58 8 l-70 7 80 -4 c44 -2 150 -5 235 -6 85 -2 106 -2 45 0 -129 4
-167 22 -55 25 247 7 241 11 -30 20 -310 10 -289 8 -283 25 4 11 -41 13 -246
13 -164 0 -251 4 -251 10 0 6 -10 8 -22 6 -49 -11 -106 -15 -112 -8 -4 3 -25
5 -46 3 -22 -1 -40 2 -40 7 0 7 -51 8 -140 5 -105 -5 -143 -3 -155 7 -12 10
-18 10 -30 0 -8 -7 -15 -8 -15 -2 0 11 -48 23 -54 13 -6 -9 -96 -1 -96 8 0 11
262 21 538 21 130 0 232 3 229 7 -4 3 -103 6 -219 5 -215 -1 -298 4 -298 18 0
4 55 6 123 3 100 -4 127 -2 152 11 29 16 28 16 -75 18 l-105 2 85 7 c48 4 -18
5 -150 3 -129 -2 -264 -9 -299 -15 -86 -15 -196 -7 -222 17 -19 17 -20 17 -26
-4 -5 -20 -12 -22 -64 -22 -44 0 -61 4 -65 15 -7 18 -31 20 -37 3 -3 -10 -8
-10 -21 1 -14 12 -19 12 -26 2 -5 -10 -21 -11 -56 -6 -27 4 -278 8 -559 9
l-510 1 -166 42 c-91 23 -197 47 -235 54 -38 6 -73 15 -78 19 -5 5 -14 6 -21
4 -6 -3 -17 5 -23 18 -9 20 -11 20 -11 4z m214 -101 c30 -4 35 -3 20 4 -28 13
-9 12 55 -3 30 -7 54 -18 53 -24 -1 -5 25 -13 60 -17 34 -4 67 -11 73 -16 7
-6 35 -12 63 -16 28 -3 54 -10 58 -16 4 -7 -17 -7 -63 -2 -38 4 -96 9 -129 10
-83 3 -257 45 -230 56 18 7 18 8 -5 8 -38 2 -70 12 -70 23 0 7 15 8 38 4 20
-3 55 -8 77 -11z m2411 -356 c16 4 79 6 139 4 161 -5 165 -5 120 -13 -39 -6
-39 -7 -15 -18 19 -8 -34 -10 -225 -10 -137 1 -229 3 -202 5 26 2 45 8 42 14
-6 8 15 13 43 10 6 -1 20 2 29 8 11 6 22 6 29 0 6 -5 23 -5 40 0z m8 -78 c67
0 106 -5 100 -10 -14 -14 -624 -21 -621 -7 4 21 66 23 521 17z"/>
<path d="M6690 2400 c-118 -5 -300 -11 -405 -14 -104 -4 -226 -8 -270 -10 -44
-2 -220 -7 -392 -12 -281 -6 -315 -5 -337 10 -28 18 -51 21 -41 7 3 -5 1 -12
-3 -15 -5 -3 -94 -5 -198 -4 -251 1 -249 1 -404 -11 -244 -19 -363 -35 -368
-50 -3 -10 0 -11 9 -5 8 5 48 10 89 11 41 2 102 7 135 12 33 4 210 9 394 10
262 1 336 -1 342 -11 7 -10 11 -10 21 0 6 6 28 12 47 12 35 -1 36 -1 12 -14
-17 -10 -20 -15 -10 -18 8 -3 -34 -8 -94 -12 -59 -5 -110 -12 -113 -17 -3 -5
0 -9 5 -9 6 0 11 -6 11 -14 0 -12 -112 -26 -212 -26 -40 0 -35 15 10 27 l37
11 -47 -6 c-32 -3 -48 -1 -48 7 0 6 -4 11 -10 11 -5 0 -10 -6 -10 -14 0 -8 -6
-17 -12 -19 -8 -3 -6 -6 5 -6 27 -1 20 -20 -10 -27 -16 -3 -41 -10 -58 -14
-16 -5 -58 -11 -92 -15 -101 -10 -146 -31 -109 -52 8 -4 15 -12 15 -18 0 -5
11 -11 23 -13 20 -2 21 -1 6 8 -24 15 -23 30 2 30 13 0 20 -7 20 -20 0 -15 7
-20 29 -20 16 0 34 7 41 15 9 11 34 15 97 15 71 0 84 2 80 15 -5 10 3 15 26
19 56 7 127 5 127 -5 0 -5 -21 -10 -47 -10 l-48 -1 38 -8 c48 -9 57 -18 33
-36 -15 -10 -16 -14 -5 -18 8 -2 23 -7 34 -12 18 -6 19 -7 2 -11 -10 -3 -16
-10 -14 -16 4 -13 76 -10 93 4 7 5 37 6 72 1 34 -5 65 -5 69 -1 4 4 26 4 48 0
l40 -6 -40 -21 c-32 -16 -48 -18 -80 -12 -77 17 -107 18 -121 3 -12 -12 -11
-14 4 -17 25 -6 -81 -28 -133 -28 -59 0 -176 -25 -230 -50 -24 -11 -57 -20
-74 -20 -27 0 -50 -15 -39 -25 2 -2 32 5 67 15 67 21 92 25 90 13 -5 -29 2
-32 44 -17 63 22 157 29 157 11 0 -10 8 -13 26 -9 18 3 25 1 20 -6 -4 -6 2 -8
14 -5 11 3 20 1 20 -3 0 -13 77 -9 93 4 17 15 59 -6 72 -36 7 -16 18 -22 43
-22 30 0 32 -2 22 -20 -9 -17 -8 -20 7 -20 16 -1 16 -2 2 -10 -10 -6 -46 -12
-80 -14 -64 -3 -99 -12 -99 -25 0 -4 -27 -6 -60 -6 -35 0 -59 -4 -57 -10 1 -6
30 -9 69 -7 37 2 76 -2 87 -8 14 -7 28 -7 47 0 20 8 29 8 35 -1 6 -10 20 -10
64 0 53 12 136 7 134 -7 -4 -23 4 -32 29 -32 24 1 25 2 10 14 -34 25 -20 36
45 36 34 0 69 -5 77 -10 13 -8 12 -10 -2 -10 -26 0 -22 -17 5 -24 12 -3 92 -6
178 -6 116 0 166 -4 192 -15 20 -8 43 -15 52 -15 23 0 18 17 -7 25 -21 7 -20
8 10 12 23 3 40 -1 53 -13 14 -12 19 -13 19 -4 0 10 5 9 18 -3 15 -13 25 -15
55 -6 20 5 39 14 42 19 8 13 72 13 80 1 3 -6 -12 -12 -32 -14 -21 -3 -5 -3 36
-1 42 2 78 9 82 16 5 8 36 9 108 5 56 -4 101 -5 101 -2 0 2 -15 9 -32 14 -30
8 -27 9 30 10 62 1 78 -9 45 -28 -16 -9 -15 -10 5 -11 13 0 31 4 41 10 10 5
68 10 127 11 65 1 101 5 89 10 -11 4 -14 8 -7 8 7 1 10 6 7 11 -3 6 3 10 14
10 12 0 21 -4 21 -10 0 -5 25 -10 55 -10 43 0 53 3 49 14 -4 12 6 15 51 15 32
0 62 4 68 10 14 14 67 14 67 0 0 -6 6 -9 13 -6 6 2 11 9 10 15 -3 15 52 32
103 32 24 0 44 5 44 10 0 6 -10 8 -22 6 -55 -11 -238 -17 -238 -7 0 5 8 10 18
9 45 -1 117 17 134 34 10 10 29 18 42 18 20 0 56 22 56 35 0 1 -32 1 -71 -2
-42 -2 -76 0 -84 7 -7 6 -41 10 -76 9 -133 -2 -162 1 -146 17 3 4 63 7 131 8
69 0 126 4 126 9 0 4 23 7 50 7 28 0 50 5 50 10 0 6 12 8 28 5 27 -5 27 -5 2
5 -20 9 -22 13 -10 20 11 7 3 10 -25 10 -23 0 -46 5 -52 11 -6 6 -38 13 -72
16 -94 9 -72 22 27 16 48 -3 103 -1 122 4 32 9 27 11 -55 17 -114 9 -127 14
-45 16 97 2 122 18 35 21 -38 2 -91 2 -117 1 -38 -2 -48 1 -48 13 0 8 4 15 9
15 5 0 13 9 16 21 4 11 16 24 28 29 21 8 20 9 -5 9 -16 1 -28 6 -28 12 0 6 14
9 33 7 27 -3 32 0 35 21 3 20 1 22 -15 15 -34 -16 -225 -16 -263 0 l-35 14 63
1 c35 0 70 5 77 11 8 7 24 9 35 5 30 -10 80 13 73 32 -5 11 -16 14 -45 10 -27
-4 -38 -2 -35 6 2 7 20 13 41 14 20 0 42 6 49 11 7 6 51 13 99 15 172 10 118
32 -92 38 l-105 3 130 6 130 6 -100 3 c-55 2 -111 6 -125 8 -47 10 -225 11
-440 3z"/>
<path d="M591 1588 c-1 -11 -7 -15 -21 -11 -11 3 -20 0 -20 -6 0 -8 -6 -9 -18
-2 -21 11 -60 -5 -72 -29 -5 -8 -13 -44 -19 -80 -14 -88 -33 -152 -49 -169 -8
-8 -28 -22 -46 -30 -28 -14 -32 -22 -39 -76 -5 -39 -3 -75 4 -103 6 -23 9 -62
6 -87 -4 -25 -2 -56 3 -70 5 -14 11 -39 12 -56 1 -18 10 -35 21 -41 11 -6 17
-17 14 -28 -6 -22 9 -116 24 -151 6 -15 30 -41 55 -58 32 -24 44 -39 44 -58 0
-54 72 -145 101 -128 5 4 16 1 24 -5 8 -7 23 -9 37 -4 13 4 33 8 45 8 12 1 32
11 45 23 25 23 95 40 146 35 18 -2 30 -8 27 -13 -4 -5 3 -9 14 -9 12 0 21 7
21 15 0 13 22 15 133 16 82 1 121 4 102 9 -30 8 -30 8 8 9 23 1 36 -3 32 -9
-4 -6 20 -10 64 -10 38 0 73 5 76 10 3 6 17 10 31 10 14 0 22 -4 19 -10 -4 -6
20 -10 65 -10 45 0 69 4 65 10 -9 14 21 12 45 -2 16 -10 24 -10 40 0 24 14 60
16 60 2 0 -5 16 -10 36 -10 21 0 33 4 29 10 -3 6 3 10 15 10 12 0 18 -4 15
-10 -7 -12 276 -12 370 0 42 5 49 8 25 9 -26 1 -31 4 -20 11 12 8 12 10 -2 15
-10 4 -26 -2 -40 -15 -14 -13 -30 -19 -43 -16 -11 3 -28 6 -38 6 -16 0 -17 2
-3 15 8 8 21 15 29 15 8 0 33 6 55 14 33 12 47 12 72 3 24 -9 33 -9 38 1 5 7
33 12 69 13 42 1 64 6 67 15 3 8 -1 14 -8 14 -8 0 -17 7 -20 16 -3 8 -10 13
-15 9 -5 -3 -12 -1 -16 5 -8 12 8 12 63 0 34 -8 48 -7 65 5 17 12 53 15 162
15 144 0 192 10 145 29 -24 9 -24 10 7 10 25 1 31 -3 27 -14 -7 -17 -5 -17 54
-6 40 8 55 0 31 -15 -18 -11 11 -24 51 -23 19 1 27 3 18 6 -20 5 -13 33 8 33
8 0 14 7 14 15 0 8 7 15 16 15 14 0 14 2 0 15 -8 9 -12 23 -9 32 5 13 2 15
-15 11 -12 -4 -25 -2 -28 3 -3 5 1 9 9 9 17 0 49 34 40 43 -3 4 -1 7 5 7 7 0
12 -4 12 -10 0 -5 23 -10 50 -10 28 0 50 5 50 10 0 6 5 10 10 10 16 0 7 -34
-10 -42 -8 -4 14 -6 50 -6 36 1 50 3 33 5 -39 5 -43 18 -8 27 14 4 25 11 25
16 0 6 7 10 16 10 11 0 15 -6 11 -20 -5 -21 7 -28 18 -10 3 6 27 10 53 11 35
0 42 3 27 9 -18 8 -18 9 5 9 14 1 34 7 45 15 30 20 100 33 201 35 49 1 55 3
44 16 -11 13 -8 15 13 15 14 0 30 -7 35 -17 12 -21 117 -27 151 -9 l24 13 -22
15 c-11 8 -18 18 -15 21 4 4 -8 2 -27 -3 -19 -6 -106 -9 -194 -8 -88 0 -144 3
-125 5 19 3 38 10 42 16 6 9 8 9 8 0 0 -16 76 -18 85 -3 3 5 30 10 58 11 29 0
61 4 72 8 11 5 27 5 35 1 15 -7 72 -1 155 18 59 13 26 21 -107 24 -103 3 -141
9 -127 22 9 9 266 10 304 2 36 -8 39 -8 27 7 -8 9 -11 20 -8 25 13 22 -20 31
-53 15 -28 -14 -36 -14 -54 -3 -15 9 -22 10 -25 1 -5 -14 -52 -15 -52 -1 0 6
-7 10 -15 10 -8 0 -15 -4 -15 -9 0 -12 -43 -19 -66 -10 -18 7 -18 8 1 9 11 2
26 2 32 1 8 -1 10 5 7 14 -5 13 9 15 100 15 88 0 106 3 106 15 0 8 -5 15 -11
15 -5 0 -7 5 -3 11 4 7 32 9 78 6 39 -3 61 -3 49 -1 -13 3 -23 12 -23 20 0 13
15 15 78 14 42 0 127 3 187 7 l110 8 -179 5 c-128 4 -181 9 -184 18 -2 7 -24
13 -50 13 l-47 2 40 7 40 7 -47 2 c-26 0 -50 6 -53 11 -4 7 -60 10 -150 9
-111 -1 -150 3 -176 15 -19 8 -51 16 -72 18 -21 1 -40 5 -43 9 -6 10 119 21
316 29 96 4 161 7 143 8 -39 2 -51 19 -27 37 17 13 15 14 -28 15 -26 0 -48 5
-50 12 -3 7 -9 8 -18 3 -21 -13 -91 -6 -107 11 -12 12 -12 14 -1 14 8 0 20 -6
26 -12 9 -9 15 -9 20 -2 14 20 71 36 99 28 16 -4 50 -6 77 -5 33 2 46 0 42 -8
-8 -13 48 -14 79 -2 27 11 -276 36 -483 40 -26 1 -41 5 -37 11 3 6 0 10 -7 10
-7 0 -21 11 -33 25 -14 17 -32 25 -60 27 -35 3 -40 0 -43 -20 -3 -18 -8 -22
-25 -17 -17 5 -19 4 -7 -4 26 -18 1 -25 -39 -11 -22 7 -55 11 -73 8 -38 -6
-61 0 -52 13 3 5 0 9 -5 9 -6 0 -11 5 -11 10 0 6 15 10 33 10 24 0 28 3 17 10
-18 12 -77 13 -84 2 -4 -7 -650 -15 -1896 -24 -127 -1 -410 19 -464 33 -21 6
-62 9 -90 8 -29 -1 -58 1 -64 5 -7 4 -12 2 -12 -3 0 -21 -16 -11 -27 17 -7 16
-11 20 -12 10z"/>
<path d="M6330 1210 c-350 -18 -401 -21 -505 -22 -79 -1 -116 2 -132 12 -20
13 -24 12 -36 -4 -12 -16 -28 -19 -111 -20 -53 -1 -96 3 -96 7 0 5 -24 6 -52
3 -29 -4 -114 -10 -187 -15 -145 -10 -274 -36 -292 -57 -9 -11 -6 -13 19 -8
22 5 36 1 48 -11 16 -15 16 -18 -3 -36 -14 -15 -39 -21 -93 -26 -58 -5 -69 -8
-50 -15 13 -5 42 -6 65 -2 33 5 43 2 48 -10 4 -9 13 -16 22 -16 19 0 55 -35
55 -55 0 -10 -10 -15 -27 -15 -31 0 -140 -27 -167 -42 -10 -5 -44 -12 -75 -16
-52 -5 -54 -6 -26 -15 17 -5 41 -8 55 -8 16 0 20 -2 13 -7 -10 -6 -9 -13 3
-30 8 -12 20 -19 26 -16 6 4 5 10 -3 15 -11 7 -10 9 3 9 9 0 18 6 21 13 2 7
10 0 17 -15 15 -33 40 -37 47 -8 3 11 9 18 13 15 5 -3 11 -1 15 5 8 13 92 13
100 0 7 -12 -35 -30 -69 -30 -13 0 -34 -9 -47 -19 -29 -23 -153 -39 -163 -22
-9 13 -56 15 -56 2 0 -5 -3 -16 -6 -24 -4 -12 5 -16 40 -19 25 -2 46 0 46 5 0
4 18 6 39 3 22 -2 42 -1 46 2 10 10 134 30 185 30 l45 0 -55 -11 c-48 -11 -55
-15 -58 -38 -2 -20 2 -28 20 -33 46 -12 68 -7 68 15 0 11 5 17 10 14 16 -10
33 5 21 19 -6 6 -6 18 -2 25 7 11 13 11 32 -3 16 -11 45 -16 90 -16 63 0 67
-1 71 -25 3 -14 1 -28 -4 -31 -5 -3 -7 -12 -4 -20 3 -9 -1 -14 -11 -14 -15 0
-14 -2 3 -16 17 -14 17 -15 1 -10 -10 3 -34 6 -54 6 -29 0 -32 2 -21 13 7 8
20 16 28 20 10 3 6 6 -10 7 -23 2 -22 3 8 11 52 15 41 39 -17 39 -28 0 -53 -4
-56 -10 -3 -5 -15 -10 -25 -10 -18 0 -18 -2 3 -24 12 -13 28 -31 35 -40 8 -10
28 -16 51 -16 21 0 56 -7 76 -16 21 -8 47 -13 58 -10 10 2 16 2 13 -1 -17 -17
75 -55 164 -68 25 -4 53 -9 64 -12 11 -3 16 -1 12 5 -3 5 -28 12 -56 16 -99
13 -105 36 -9 36 44 0 59 -3 59 -14 0 -8 9 -18 21 -21 16 -5 18 -10 8 -21 -9
-12 -5 -14 27 -15 22 -1 44 -2 49 -4 6 -1 31 -3 58 -3 26 -1 47 -7 47 -12 0
-6 -38 -8 -102 -6 -99 5 -100 4 -28 -4 81 -10 269 -11 284 -2 5 3 29 7 53 9
32 3 45 0 49 -12 4 -10 10 -12 18 -6 15 13 254 29 265 18 4 -4 20 -5 34 -2 18
5 24 12 20 23 -4 14 -3 14 5 3 11 -15 72 -18 127 -5 29 6 29 6 10 -10 -11 -8
-15 -16 -8 -16 22 0 43 12 43 26 0 12 11 13 53 9 38 -5 48 -4 37 4 -12 9 -10
11 10 12 14 0 19 3 13 6 -21 8 -15 20 13 26 15 2 31 -2 40 -10 13 -14 17 -13
35 3 15 13 35 18 77 18 31 -1 51 1 45 3 -7 3 -13 11 -13 19 0 8 -6 15 -12 15
-7 1 12 5 42 9 46 6 561 13 610 8 34 -3 50 3 50 18 0 13 -7 15 -37 11 -30 -5
-428 -10 -556 -8 -39 1 -25 18 21 25 20 3 154 8 297 11 311 6 405 13 405 30 0
9 -13 10 -48 4 -75 -11 -619 -22 -604 -11 8 5 12 13 11 18 -5 14 117 33 217
34 135 0 365 12 359 18 -5 6 -217 4 -347 -3 -64 -3 -67 -2 -58 15 14 27 14 28
-29 26 -22 0 -37 -4 -35 -8 11 -18 -25 -38 -55 -32 -36 7 -48 21 -33 36 13 13
20 13 227 23 159 8 203 15 91 15 -46 0 -65 3 -60 11 4 7 28 9 68 5 158 -16
212 -17 366 -10 l165 9 -110 7 c-60 5 -159 12 -220 16 l-110 9 89 1 c49 1 87
4 84 7 -3 3 -60 7 -126 9 -67 3 -125 7 -130 10 -13 8 -22 56 -11 56 5 0 9 -7
9 -15 0 -22 16 -18 38 10 11 14 28 25 38 26 15 0 16 2 4 7 -8 4 -15 20 -15 37
0 22 -5 30 -18 30 -10 0 -24 8 -31 18 -16 21 -27 22 -20 2 5 -11 -1 -15 -21
-15 -24 0 -25 1 -10 16 9 9 14 19 11 21 -8 8 -66 -8 -66 -18 0 -5 -11 -14 -24
-20 -18 -8 -30 -7 -54 5 -25 13 -36 14 -57 4 -21 -9 -28 -9 -34 1 -6 9 -11 10
-15 2 -9 -14 -103 -15 -111 -1 -3 6 4 10 17 11 17 1 15 3 -12 11 -32 9 -33 11
-15 21 13 8 65 11 144 10 78 -1 119 2 110 8 -10 6 -6 9 16 10 23 1 19 4 -20
12 -27 5 -55 16 -63 23 -19 20 -25 17 -19 -7 5 -20 3 -20 -96 -13 -56 3 -103
11 -105 15 -2 5 -45 9 -95 10 -62 1 -84 4 -67 9 24 8 23 8 -8 9 -18 1 -41 -4
-52 -11 -16 -10 -23 -9 -40 7 -31 28 -184 37 -410 25z"/>
</g>
</svg>
