<?xml version='1.0' encoding='utf-8'?>
<svg xmlns="http://www.w3.org/2000/svg" width="100%" height="100%" version="1.1" style="shape-rendering:geometricPrecision; text-rendering:geometricPrecision; image-rendering:optimizeQuality; fill-rule:evenodd; clip-rule:evenodd" viewBox="0 0 9144 9144"> <defs> <style type="text/css">  .fil0 {fill:white} .fil1 {fill:#F16528;fill-rule:nonzero}  </style> </defs> <g id="Camada_x0020_1"> <metadata id="CorelCorpID_0Corel-Layer"/> <polygon class="fil0" points="0,0 9144,0 9144,9144 0,9144 "/> <path class="fil1" d="M2815 2452l3514 0c21,0 40,8 54,22 14,14 23,33 23,55l0 4 -287 3587c-2,16 -8,31 -17,42 -10,12 -24,21 -39,26l-1466 500c-9,3 -17,4 -25,4 -8,0 -17,-1 -25,-4 -328,-109 -654,-221 -980,-334 -165,-56 -329,-113 -490,-168 -14,-5 -27,-14 -36,-25 -9,-12 -14,-26 -16,-41l-286 -3585c-2,-22 5,-41 18,-56 13,-15 31,-26 52,-27l6 0zm3430 154l-3346 0 276 3451 1397 477 1397 -477 276 -3451zm-1193 2689l-444 182c-8,4 -17,5 -25,6 -8,0 -16,-1 -23,-3l0 1 -461 -145c-17,-5 -30,-15 -39,-28 -9,-12 -14,-27 -15,-42l0 0 0 -148 -277 0 0 404 827 260 766 -315 106 -1203 -1452 0c-21,0 -40,-8 -54,-22 -14,-14 -23,-34 -23,-55l-26 -501c-1,-21 7,-41 20,-55 13,-15 32,-25 53,-26l0 0 1555 0 0 -276 -1924 0 64 1211 1401 0c22,0 41,9 55,23 14,14 22,33 22,54l0 5 -53 607c-1,15 -7,29 -17,41 -9,12 -22,21 -36,25zm-476 29l380 -155 41 -475 -1393 0 0 0c-19,-1 -37,-9 -50,-21 -13,-13 -22,-31 -23,-52l-72 -1360 -1 -4 0 -5c0,-21 9,-41 23,-55 14,-14 33,-22 54,-22l2082 0c21,0 40,8 54,22 14,14 23,34 23,55l0 430c0,21 -9,41 -23,54 -14,14 -33,23 -54,23l-1547 0 18 351 1470 0c21,2 39,13 52,28 13,15 20,35 18,56l-118 1337 0 0c-2,13 -7,25 -14,35 -8,11 -19,20 -33,26l-832 341c-8,4 -17,6 -27,7 -9,1 -19,-1 -28,-3l-903 -284c-17,-5 -32,-14 -42,-28 -11,-13 -17,-29 -17,-47l0 -537c0,-21 9,-41 23,-55 14,-14 33,-22 54,-22l431 0c21,0 40,8 54,22 14,14 23,34 23,55l0 165 377 118z"/> </g> </svg>